<svg width="1331" height="538" viewBox="0 0 1331 538" fill="none" xmlns="http://www.w3.org/2000/svg">
<g id="podium-script">
<path id="dark-outer" d="M141.062 110.5C141.062 130.007 92.709 500.149 60.0257 500.149C23.0445 500.149 30.3819 496.72 28.0099 460.147C24.6744 408.717 28.6769 297.856 54.6901 204.139C80.7033 110.421 116.345 60.2313 135.398 46.4192C152.74 33.8473 190.759 44.1334 215.438 87.5634C233.964 120.163 244.786 191.567 240.117 224.711C231.906 282.999 198.763 313.857 182.088 321.857C158.107 333.362 146.737 332.143 129.395 321.857C112.053 311.571 84.0382 315 84.0382 295.57C84.0382 277.142 101.38 280.713 108.05 295.57C114.72 310.428 118.723 328.714 129.395 363.001C140.067 397.288 261.461 304.714 261.461 334.429C261.461 370.317 243.452 457.862 243.452 476.148C243.452 492.789 242.118 495.577 254.792 508.149C267.131 520.39 296.692 490.248 306.818 473.862C318.823 454.433 326.325 379.208 330.163 357.287C334.165 334.429 342.836 280.713 326.161 276.141C304.817 270.289 298.42 276.141 283.473 309.285C268.526 342.429 274.801 341.286 283.473 348.144C300.814 361.859 311.487 377.397 333.498 379.002C364.847 381.288 375.519 385.859 384.857 379.002C394.195 372.144 416.873 233.854 458.895 233.854C484.908 233.854 495.439 327.305 507.586 301.285C510.254 295.571 512.255 236.14 485.575 233.854C450.934 230.886 403.533 317.286 403.533 379.002C403.533 460.156 374.852 476.148 403.533 485.291C426.097 492.484 481.573 438.432 486.909 408.717C492.245 379.002 558.257 119.371 573.62 87.5634C589.628 54.4192 599.633 -9.58297 568.951 54.4193C540.358 114.063 526.929 217.853 522.26 244.14C517.591 270.427 504.918 382.431 502.25 408.717C498.592 444.767 507.416 472.89 529.597 476.148C552.942 479.577 567.617 465.862 589.628 437.29C611.639 408.717 609.147 408.342 618.976 382.43C627.647 359.572 636.985 353.096 623.645 337.858C611.639 324.143 601.634 359.573 600.967 375.573C600.3 391.574 596.965 454.433 603.635 476.148C610.305 497.863 628.416 508.149 643.655 508.149C658.996 508.149 688.345 483.005 699.684 460.147C701.42 456.647 703.438 452.396 705.613 447.576M705.613 447.576C717.641 420.917 737.233 376.555 739.704 345.858C742.371 312.714 745.707 298.999 735.036 301.285C724.676 303.504 719.694 334.429 715.025 363.001C710.646 389.802 696.201 435.004 705.613 447.576ZM705.613 447.576C711.196 462.433 724.23 492.149 731.7 492.149C741.039 492.149 783.727 438.433 797.067 423.575C810.407 408.717 837.087 334.429 841.089 321.857C847.638 301.285 845.758 260.141 823.079 327.572C800.401 395.003 816.479 425.58 827.081 454.433C838.421 485.291 849.679 485.291 869.103 485.291C892.448 485.291 892.739 481.652 911.792 460.147C932.044 437.29 943.14 364.144 942.473 345.858C941.806 327.572 935.137 306.999 930.468 301.285C925.799 295.57 926.466 296.713 926.466 345.858C926.466 385.174 926.466 458.624 926.466 476.148C942.696 446.052 949.143 382.43 987.163 337.858C1008.24 313.147 1009.17 295.57 1027.18 309.285C1045.89 323.527 1041.86 345.858 1041.86 379.002C1041.86 412.146 1037.42 427.997 1031.19 447.576C1027.18 460.147 1054.53 422.432 1065.87 408.717C1077.21 395.003 1117.1 337.632 1125.23 327.572C1137.24 312.714 1147.91 303.571 1147.91 321.857C1147.91 340.144 1141.91 389.288 1137.24 403.003C1132.57 416.718 1121.23 435.004 1129.24 460.147C1137.24 485.291 1148.58 476.148 1159.92 476.148C1171.26 476.148 1193.27 457.862 1201.27 447.576C1209.28 437.29 1217.28 408.717 1223.95 408.717C1229.29 408.717 1291.54 427.765 1322 437.29" stroke="#2E2525" stroke-width="54"/>
<path class="path" id="lihgt-inner" d="M127.394 110.925C127.394 129.29 84.7049 488.081 52.0217 488.081C15.0405 488.081 22.3778 484.652 20.0059 448.079C16.6704 396.649 20.6729 285.788 46.6861 192.071C72.6993 98.3531 108.341 48.1632 127.394 34.3511C144.736 21.7792 182.755 32.0653 207.434 75.4952C225.96 108.095 236.782 179.499 232.113 212.643C223.902 270.931 190.759 301.789 174.084 309.789C150.103 321.294 138.733 320.075 121.391 309.789C104.048 299.503 76.0342 302.932 76.0342 283.502C76.0342 265.074 93.3763 268.645 100.046 283.502C106.716 298.36 110.719 316.646 121.391 350.933C132.063 385.22 253.457 292.646 253.457 322.361C253.457 358.249 235.448 445.794 235.448 464.08C235.448 480.721 234.114 483.509 246.788 496.081C259.127 508.322 288.688 478.18 298.814 461.794C310.819 442.365 318.321 367.14 322.159 345.219C326.161 322.361 334.832 268.645 318.157 264.073C296.812 258.221 290.416 264.073 275.469 297.217C260.522 330.361 266.797 329.218 275.469 336.076C292.81 349.791 303.483 365.329 325.494 366.934C356.843 369.22 367.515 373.791 376.853 366.934C386.191 360.076 408.869 221.786 450.891 221.786C476.904 221.786 487.435 315.237 499.582 289.217C502.25 283.502 504.251 224.072 477.571 221.786C442.93 218.818 395.529 305.217 395.529 366.934C395.529 448.087 366.848 464.08 395.529 473.223C418.093 480.416 473.569 426.364 478.905 396.649C484.241 366.934 550.253 107.302 565.616 75.4952C581.624 42.3511 591.629 -21.6511 560.947 42.3512C532.354 101.995 518.925 205.785 514.256 232.072C509.587 258.359 496.914 370.363 494.246 396.649C490.588 432.699 499.412 460.822 521.593 464.08C544.938 467.508 559.613 453.794 581.624 425.222C603.635 396.649 601.143 396.274 610.972 370.362C619.643 347.504 628.981 341.028 615.641 325.79C603.635 312.075 593.63 347.504 592.963 363.505C592.296 379.506 588.961 442.365 595.631 464.08C602.301 485.795 620.412 496.081 635.651 496.081C650.992 496.081 680.341 470.937 691.68 448.079C693.416 444.579 695.434 440.328 697.609 435.508M697.609 435.508C709.637 408.849 729.229 364.486 731.7 333.79C734.367 300.646 737.703 286.931 727.031 289.217C716.672 291.436 711.69 322.361 707.021 350.933C702.642 377.734 688.197 422.936 697.609 435.508ZM697.609 435.508C703.192 450.365 716.226 480.08 723.696 480.08C733.035 480.08 775.723 426.365 789.063 411.507C802.403 396.649 829.083 322.361 833.085 309.789C839.634 289.217 837.754 248.073 815.075 315.504C792.397 382.935 808.475 413.512 819.077 442.365C830.417 473.223 841.675 473.223 861.099 473.223C884.444 473.223 884.735 469.584 903.788 448.079C924.04 425.222 935.136 352.076 934.469 333.79C933.802 315.504 927.133 294.931 922.464 289.217C917.795 283.502 918.462 284.645 918.462 333.79C918.462 373.105 918.462 446.555 918.462 464.08C934.692 433.984 941.139 370.362 979.159 325.79C1000.24 301.079 1001.17 283.502 1019.18 297.217C1037.88 311.459 1033.85 333.79 1033.85 366.934C1033.85 400.078 1029.41 415.929 1023.18 435.508C1019.18 448.079 1046.53 410.364 1057.87 396.649C1069.21 382.934 1109.1 325.564 1117.23 315.504C1129.23 300.646 1139.91 291.502 1139.91 309.789C1139.91 328.075 1133.9 377.22 1129.24 390.935C1124.57 404.649 1113.23 422.936 1121.23 448.079C1129.24 473.223 1140.57 464.08 1151.91 464.08C1163.25 464.08 1185.26 445.794 1193.27 435.508C1201.27 425.222 1209.28 396.649 1215.95 396.649C1221.28 396.649 1283.54 415.697 1314 425.222" stroke="#C3AF9C" stroke-width="10"/>
<g id="itrack">
<path id="Vector 408" d="M655.667 123.893C672.342 118.179 666.339 142.18 655.667 198.182C649.22 189.42 635.924 168.238 634.323 153.609C632.322 135.323 638.992 129.608 655.667 123.893Z" stroke="#2E2525" stroke-width="27"/>
<path class="path" id="I-middle" d="M655.667 123.893C672.342 118.179 666.339 142.18 655.667 198.182C649.22 189.42 635.924 168.238 634.323 153.609C632.322 135.323 638.992 129.608 655.667 123.893Z" stroke="#C3AF9C" stroke-width="5"/>
</g>
</g>
<style>
    @media (prefers-reduced-motion: no-preference) {
      .path {
        stroke-dasharray: 5;
        stroke-dashoffset: 500;
        animation-name: dash;
        animation-fill-mode: forwards;
        animation-timing-function: linear;
        animation-duration: 20s;
        animation-iteration-count: infinite;
      }

      @keyframes dash {
        to {
          stroke-dashoffset: 0;
        }
      }
    }
  </style>
</svg>
