<svg width="411" height="320" viewBox="0 0 411 320" fill="none" xmlns="http://www.w3.org/2000/svg">
<path d="M117.096 238.871C114.027 228.286 111.01 218.103 107.868 207.959C106.225 202.654 104.348 197.422 102.602 192.148C101.458 188.694 101.669 185.775 104.663 182.977C113.274 174.93 122.44 167.712 132.972 162.339C134.575 161.52 136.244 160.79 137.949 160.219C143.102 158.491 144.243 157.002 142.992 151.876C140.709 142.529 137.867 133.313 135.749 123.932C133.92 115.83 132.801 107.569 131.307 99.39C130.861 96.9503 130.923 93.831 129.433 92.3472C128.149 91.0681 124.538 90.7405 122.742 91.6122C116.676 94.5559 110.676 97.8204 105.183 101.713C98.6136 106.369 92.4962 111.687 86.3954 116.964C84.7876 118.355 83.7731 120.562 82.8341 122.558C81.9021 124.539 80.9112 124.18 80.1735 122.771C79.1636 120.843 78.4762 118.733 77.77 116.66C74.3962 106.757 70.9256 96.8834 67.7619 86.913C65.5646 79.988 63.8091 72.923 61.8562 65.9205C61.2981 63.9197 60.7884 61.9041 60.1732 59.9211C58.1757 53.4821 59.8423 49.4302 65.3331 45.474C70.3406 41.8659 74.9647 37.7287 79.8019 33.8802C84.4272 30.2002 89.2531 27.0094 95.0999 25.3205C98.5111 24.3353 101.426 21.7164 104.807 20.5202C109.086 19.0066 113.566 17.9277 118.044 17.1389C124.598 15.9843 131.202 14.8816 137.831 14.4442C144.891 13.9782 152.045 13.8399 159.082 14.4388C165.336 14.9709 171.646 16.1908 177.645 18.0367C186.26 20.6875 194.629 24.1445 203.077 27.3257C214.66 31.6874 226.336 35.8359 237.739 40.6282C243.446 43.0262 248.764 46.4474 254.033 49.7625C263.276 55.577 273.035 60.2531 282.971 64.7704C293.242 69.44 303.853 72.9961 314.45 76.6759C316.911 77.5305 319.594 77.8613 322.206 78.1358C326.26 78.5618 330.379 79.2325 334.402 78.9198C347.571 77.8963 360.223 74.8958 371.57 67.6917C373.545 66.4373 375.664 65.4036 377.609 64.1072C379.797 62.649 382.036 61.1936 383.946 59.4083C387.816 55.7906 391.628 52.0863 395.178 48.1587C397.85 45.2021 399.909 41.6917 402.58 38.734C403.678 37.5178 405.616 36.8248 407.285 36.5266C407.694 36.4535 409.006 38.8286 409.116 40.1438C409.583 45.7317 410.634 51.4708 409.851 56.9216C408.182 68.5263 409.439 80.478 405.323 91.8168C403.508 96.8165 403.314 102.401 401.531 107.416C399.769 112.37 396.918 116.935 394.57 121.683C392.967 124.923 391.585 128.286 389.794 131.415C386.17 137.746 382.863 144.359 378.461 150.118C372.045 158.511 365.275 166.768 357.704 174.099C352.388 179.247 345.454 182.712 339.298 187.008C327.701 195.098 314.063 197.594 300.828 201.242C296.974 202.304 293.296 204.034 289.419 204.975C285.313 205.972 281.087 206.578 276.878 207.025C270.151 207.74 263.376 208.013 256.659 208.801C252.226 209.321 247.873 210.488 243.461 211.23C239.525 211.892 235.53 212.22 231.609 212.955C222.439 214.675 213.333 216.764 204.135 218.309C191.655 220.406 181.372 227.217 171.369 234.063C164.416 238.822 159.16 245.985 152.551 251.341C145.728 256.87 141.261 264.186 135.795 270.752C133.565 273.43 130.862 272.66 128.766 269.614C123.617 262.131 122.32 253.288 119.577 244.949C118.937 243.001 117.933 241.173 117.096 238.871ZM154.759 190.746C155.596 193.606 156.577 196.433 157.242 199.332C158.998 206.984 160.46 214.706 162.349 222.324C163.524 227.06 166.324 227.75 170.175 224.727C172.054 223.253 173.976 221.828 175.937 220.467C185.493 213.832 196.809 211.525 207.585 208.061C214.314 205.898 214.275 206.649 212.458 198.995C208.955 184.242 205.83 169.398 202.413 154.623C201.869 152.269 201.189 148.841 199.57 148.1C197.162 146.998 193.846 147.669 190.944 147.919C187.919 148.179 184.929 149.232 181.92 149.246C170.377 149.298 159.574 152.475 148.886 156.391C146.385 157.307 145.857 159.088 146.436 161.16C149.12 170.768 151.969 180.33 154.759 190.746ZM174.009 28.3754C169.851 24.3126 164.292 24.3046 159.168 23.9309C153.476 23.5158 147.677 24.132 141.957 24.6609C135.31 25.2756 128.655 26.0459 122.099 27.2667C120.171 27.6258 116.867 28.4134 118.672 32.3445C119.522 34.1981 119.594 36.5356 119.562 38.6468C119.395 49.5523 124.424 59.3604 126.041 69.8899C126.59 73.4645 128.329 76.8779 128.711 80.4518C129.369 86.6241 130.015 87.2361 135.839 84.9785C136.202 84.8379 136.654 84.9476 137.048 84.8635C143.326 83.5245 149.544 81.713 155.89 80.9355C164.663 79.8604 173.435 77.4887 182.408 79.7928C184.265 80.2699 186.388 80.2617 185.75 77.074C184.998 73.3196 184.631 69.4789 183.727 65.7659C181.726 57.5522 179.515 49.3895 177.348 41.2172C176.283 37.2027 175.125 33.2131 174.009 28.3754ZM243.477 102.028C241.165 98.3527 239.871 94.1298 234.406 93.0982C225.343 91.3874 216.443 88.7997 207.486 86.5336C203.46 85.5152 199.466 84.3762 195.454 83.3015C192.667 82.5545 189.624 84.155 189.958 86.3507C190.53 90.109 191.297 93.8452 192.156 97.5506C193.567 103.638 195.103 109.696 196.611 115.761C198.148 121.947 199.724 128.123 201.261 134.309C201.701 136.084 202.337 137.865 202.414 139.664C202.636 144.815 202.889 144.848 208.247 145.194C217.804 145.81 227.343 146.744 236.877 147.673C240.704 148.046 244.496 148.769 248.306 149.313C251.269 149.736 253.204 149.053 252.717 145.432C252.515 143.927 252.996 142.293 252.631 140.853C250.653 133.054 248.398 125.324 246.46 117.516C245.261 112.683 244.458 107.752 243.477 102.028ZM291.602 196.186C296.371 195.602 301.187 195.265 305.895 194.362C310.291 193.52 311.41 190.77 310.066 186.169C307.343 176.85 304.921 167.437 301.919 158.211C301.218 156.057 298.776 153.004 296.992 152.903C284.141 152.178 271.251 152.147 258.377 151.794C255.773 151.722 254.729 152.818 255.221 155.222C256.425 161.109 257.612 167.007 259.086 172.83C260.994 180.366 263.008 187.885 265.326 195.302C266.162 197.975 267.584 200.923 271.63 198.774C272.608 198.256 274.111 198.826 275.345 198.675C280.63 198.03 285.905 197.302 291.602 196.186ZM261.472 98.2618C268.855 99.9357 276.24 101.597 283.619 103.287C289.529 104.641 290.514 103.676 288.987 98.1427C286.881 90.5147 284.909 82.8494 282.769 75.2311C281.738 71.5571 280.405 68.293 276.132 66.783C263.001 62.1442 251.181 54.8886 239.277 47.8049C238.416 47.2925 235.272 48.6188 235.297 48.918C235.608 52.7315 236.139 56.549 236.937 60.2966C239.032 70.1316 241.21 79.9506 243.537 89.7328C244.037 91.8326 244.884 95.057 246.296 95.5107C250.895 96.989 255.829 97.4248 261.472 98.2618ZM296.206 130.485C297.879 136.622 299.534 142.764 301.232 148.893C302.161 152.246 304.947 151.88 307.464 151.787C308.611 151.745 309.755 151.309 310.88 150.984C317.602 149.044 324.436 147.407 330.992 145.013C335.062 143.527 335.234 140.939 333.805 137.009C331.069 129.486 328.886 121.764 326.24 114.206C325.86 113.122 324.26 111.925 323.087 111.761C319.715 111.287 316.243 111.544 312.865 111.097C307.1 110.334 301.372 109.28 295.638 108.292C293.163 107.866 292.481 108.93 292.847 111.21C293.855 117.491 294.811 123.78 296.206 130.485ZM353.119 134.67C349.133 136.483 344.979 138.008 341.218 140.206C338.475 141.808 336.854 144.084 337.9 148.097C339.822 155.462 340.727 163.087 342.327 170.546C342.688 172.227 343.904 174.011 345.263 175.039C345.754 175.41 347.902 173.818 349.142 172.913C350.881 171.645 352.579 170.286 354.118 168.785C358.571 164.441 363.036 160.099 367.251 155.53C368.11 154.599 368.371 152.589 368.104 151.235C366.893 145.089 365.526 138.965 363.929 132.908C363.364 130.768 362.143 128.782 359.265 130.959C357.522 132.277 355.457 133.168 353.119 134.67ZM358.559 95.7509C356.049 97.2191 356.002 99.7513 356.542 101.963C358.294 109.136 360.244 116.269 362.416 123.325C362.962 125.102 364.039 127.086 366.764 124.524C372.375 119.247 378.483 114.502 384.165 109.297C385.026 108.508 385.318 106.16 384.817 104.982C382.603 99.7734 379.383 94.9194 377.735 89.565C376.379 85.1597 374.178 86.214 371.881 87.5604C367.592 90.0736 363.544 92.9977 358.559 95.7509ZM322.988 82.7779C320.128 84.1789 319.103 85.9691 320.249 89.3957C321.851 94.188 322.52 99.2843 323.885 104.167C324.65 106.905 326.445 109.253 329.74 108.244C335.392 106.513 341.023 104.632 346.485 102.381C351.993 100.112 353.238 96.8213 351.456 91.2706C351.1 90.1602 350.805 89.0167 350.623 87.8661C349.913 83.3952 348.548 82.1705 343.979 82.3879C341.446 82.5084 338.923 83.1785 336.403 83.1383C332.068 83.0693 327.739 82.6385 322.988 82.7779ZM154.759 118.767C156.234 121.917 157.113 125.617 159.362 128.052C161.396 130.256 165.005 132.361 167.778 132.192C171.355 131.974 174.472 129.555 175.818 125.174C177.96 118.197 177.186 111.813 174.011 105.485C171.465 100.412 166.92 98.0372 161.749 99.0988C158.648 99.7355 154.773 105.767 154.76 109.992C154.752 112.638 154.759 115.284 154.759 118.767ZM340.565 121.278C341.549 121.983 342.576 122.636 343.506 123.406C344.713 124.406 345.844 125.5 347.007 126.553C347.145 124.849 347.306 123.146 347.408 121.439C347.44 120.91 347.162 120.329 347.296 119.847C347.499 119.114 347.937 118.447 348.275 117.752C348.866 118.182 349.753 118.491 349.989 119.066C350.623 120.613 350.78 122.37 351.499 123.864C352.264 125.451 353.459 126.831 354.466 128.301C354.854 126.653 355.826 124.883 355.514 123.381C354.755 119.733 353.606 116.124 352.182 112.678C351.597 111.263 349.777 109.265 348.735 109.386C347.166 109.568 344.763 111.188 344.512 112.532C343.692 116.929 341.698 116.12 338.884 114.683C337.985 114.224 336.315 114.162 335.615 114.709C334.737 115.393 333.853 117.05 334.089 118.012C335.103 122.14 336.414 126.209 337.873 130.206C338.286 131.336 339.571 132.147 340.456 133.104C340.957 131.58 341.954 130.018 341.844 128.54C341.672 126.229 340.75 123.975 340.565 121.278ZM271.097 135.507C271.391 136.359 271.477 137.399 272.032 138.019C272.797 138.875 273.917 139.414 274.885 140.088C275.296 139.006 275.765 137.94 276.093 136.832C276.244 136.32 276.231 135.698 276.101 135.173C274.453 128.48 272.811 121.785 271.038 115.124C270.849 114.414 269.845 113.921 269.218 113.327C268.729 113.894 268.03 114.385 267.794 115.043C267.357 116.264 266.727 117.687 266.991 118.84C268.206 124.151 269.702 129.399 271.097 135.507Z" fill="#2E2525"/>
<path d="M124 319C123.512 317.93 124.074 319.162 124 319C123.926 318.838 121.787 311.69 124 319C120.669 307.552 94.5391 306.641 91.1402 295.212C86.1562 278.454 81.0989 261.718 76.0868 244.968C71.334 229.085 66.6783 213.171 61.8352 197.316C56.355 179.374 50.5952 161.517 45.1947 143.552C42.6504 135.088 40.8675 126.396 38.3649 117.918C35.7315 108.998 32.5003 100.255 29.8009 91.3527C25.8521 78.3297 22.081 65.2514 18.3859 52.1539C17.6172 49.4288 19.623 47.7983 21.8842 46.9177C24.5303 45.8872 27.2641 44.9608 30.044 44.4302C32.676 43.928 35.115 44.2992 36.2056 47.5375C38.511 54.3831 41.1676 61.1119 43.4117 67.9764C47.9921 81.9867 52.4547 96.0365 56.8468 110.107C59.202 117.652 61.1326 125.333 63.5836 132.845C65.7416 139.459 68.5639 145.857 70.7241 152.471C74.3394 163.54 77.5678 174.734 81.1294 185.822C85.8715 200.584 90.7561 215.301 95.6185 230.024C99.6287 242.167 103.802 254.257 107.699 266.436C110.187 274.21 112.191 282.139 114.61 289.937C118.442 302.286 119.947 306.722 124 319C120.963 309.503 123.926 318.838 124 319Z" fill="#2E2525" fill-opacity="0.61"/>
<path d="M27.3314 34.4433C17.4571 38.2646 7.98155 35.2338 2.51043 26.7801C-0.780662 21.695 1.20457 11.4909 5.39848 5.98706C13.9468 -5.23132 32.8705 0.783067 36.3467 11.9612C38.1009 17.6019 34.9592 28.8632 30.0274 32.156C29.1342 32.7524 28.3663 33.5366 27.3314 34.4433Z" fill="#2E2525" fill-opacity="0.34"/>
<path d="M118.769 130.903C118.945 136.627 117.367 140.918 112.387 143.674C110.583 144.672 109.673 146.298 110.99 148.819C112.279 151.288 112.789 154.205 113.363 156.982C113.519 157.738 112.787 158.798 112.202 159.502C112.054 159.681 110.52 159.218 110.282 158.729C108.879 155.844 107.413 152.947 106.448 149.901C103.951 142.023 101.664 134.078 99.4094 126.127C99.1033 125.047 99.2255 123.704 99.5648 122.612C100.552 119.434 106.521 116.852 109.623 117.59C112.929 118.376 115.445 120.314 116.316 124.004C116.842 126.233 117.933 128.329 118.769 130.903ZM113.329 135.088C112.835 131.804 112.726 128.387 111.664 125.298C111.215 123.99 109.817 121.497 106.909 122.988C104.453 124.247 103.888 125.382 105.219 127.956C106.262 129.972 106.419 132.434 107.067 134.669C107.676 136.765 108.414 138.823 109.095 140.897C110.367 139.1 111.639 137.304 113.329 135.088Z" fill="#2E2525"/>
<path d="M218.368 102.447C224.463 104.676 230.404 106.946 231.115 114.063C231.616 119.07 234.023 124.159 231.328 129.247C229.016 133.612 219.794 136.918 216.21 133.803C213.819 131.724 212.685 127.816 211.769 124.511C210.132 118.599 209.172 112.503 207.756 106.525C207.017 103.402 208.089 101.701 211.198 101.669C213.445 101.645 215.699 102.168 218.368 102.447ZM218.787 107.468C215.035 105.971 212.025 106.579 212.575 108.671C214.153 114.679 215.839 120.679 217.936 126.519C218.472 128.012 221.317 130.174 222.015 129.829C224.152 128.773 226.82 126.938 227.382 124.886C229.291 117.919 225.991 111.267 218.787 107.468Z" fill="#2E2525"/>
<path d="M317.13 134.251C316.293 130.147 315.222 126.492 314.741 122.76C314.563 121.382 315.773 119.824 316.35 118.349C317.168 119.445 318.379 120.426 318.736 121.656C320.289 127.011 321.197 132.586 323.131 137.787C324.377 141.138 322.831 140.926 320.704 140.944C318.849 140.959 316.916 140.605 315.155 141.01C309.689 142.269 306.309 140.669 304.798 135.725C303.704 132.144 302.366 128.602 301.703 124.941C301.436 123.469 302.684 121.722 303.242 120.101C304.244 121.278 305.633 122.302 306.172 123.662C307.451 126.891 308.02 130.418 309.442 133.569C311.4 137.91 313.546 138.073 317.13 134.251Z" fill="#2E2525"/>
<path d="M162.082 124.417C159.767 118.699 157.078 113.259 160.395 107.257C162.702 103.085 167.231 102.657 169.493 106.866C172.208 111.919 173.635 117.424 171.276 123.168C169.375 127.796 166.165 128.306 162.082 124.417Z" fill="#2E2525"/>
</svg>
