<svg width="2690" height="2203" viewBox="0 0 2690 2203" fill="none" xmlns="http://www.w3.org/2000/svg">
<path class="path" d="M2686 960.38C2481.34 950.321 2552.14 1345.2 2396.76 1490.3C2205.87 1668.55 2104.66 1029.64 2281.64 756.801C2452.21 582.237 2558.35 1134.71 2437.65 1437.18C2310.27 1756.43 2113.71 1214.08 2242.57 887.442C2365.4 576.164 2573.06 1008.26 2464.81 1340.61C2439.49 1418.33 2400.42 1475.8 2362.29 1486.22C2245.72 1518.07 2207.39 1220.94 2129.76 1055.28C2052.08 889.509 1945.04 829.768 1850.32 905.593C1811.47 936.679 1773.62 1001.46 1750.24 1092.14C1704.75 1268.63 1755.87 1463.67 1824.83 1509.94C1946.92 1591.88 2078.54 1321.14 2053.11 965.674C2003.78 276.317 1595.7 564.033 1659.66 1303.9C1713.14 1922.44 2118.47 1741.84 2065.05 1099.87C2041.33 814.731 1929.41 594.012 1822.79 602.248C1722.54 609.996 1620.1 853.421 1645.42 1144.86C1658.5 1295.24 1696.54 1416.3 1741.8 1505.51C1872.52 1763.1 2025.79 1680.08 2082.23 1245.14C2100.72 1102.52 2096.17 949.865 2074.07 811.912C1988.14 275.573 1663.91 688.608 1681.32 1243.6C1698.16 1779.6 1970.14 1973.26 2058.51 1453.01C2079.55 1329.1 2084.14 1182.59 2070.18 1051.36C2058.91 945.275 2036.64 847.256 2007.34 770.667C1775.05 163.384 1608.94 1019.51 1465.72 1392C1426.63 1493.68 1379.54 1578.4 1329.4 1634.28C1202.49 1775.71 987.285 1666.93 948.743 1254.51C877.722 494.545 1410.56 15.6076 1448.67 929.099C1460.53 1213.43 1425.23 1539.16 1332.98 1698.66C1234.53 1868.91 1046.73 1804.96 1002.52 1469.16C988.863 1365.4 994.096 1251.54 1001.54 1145.73C1027.78 772.762 1133.94 384.707 1286.41 403.682C1346.24 411.127 1391.79 496.612 1424.03 629.995C1447.72 728.026 1471.15 843.398 1476.47 961.604C1481.58 1074.94 1474.63 1191.18 1458.27 1295.94C1378.99 1803.31 1149.62 1768.8 1029.57 1398.7C978.772 1242.09 927.158 961.932 968.153 756.801C1081.4 190.124 1564.79 884.963 1423.77 1465.97C1394.78 1585.42 1350.95 1666.69 1300.54 1706.14C1259.37 1738.36 1214.98 1733.74 1173.34 1711.08C1116.49 1680.11 1038.1 1632.31 1006.5 1482.85C993.998 1423.73 994.415 1357.43 999.96 1292.53C1029.38 947.922 1226.36 774.493 1337.13 731.533C1396.61 708.459 1479.23 704.793 1484.32 918.332C1495.07 1368.1 1257.88 1640.84 1123.67 1654.56C1060.15 1661.04 968.619 1623.5 946.055 1433.56C902.052 1063.11 1098.01 331.655 1244.92 361.758C1336.64 380.549 1407.75 662.468 1435.65 879.777C1489.11 1296.24 1428.99 1722.91 1250.68 1742.38C1207.32 1747.11 1161.52 1730.99 1122.26 1678.48C1022.9 1545.61 967.513 1186.59 971.023 894.858C972.845 743.315 999.016 597.382 1040.17 496.46C1199.99 104.559 1473.54 451.657 1436.58 1039.37C1410.5 1454.28 1215.77 1699.63 1095.6 1396.62C1071.24 1335.21 1050.85 1249.97 1048.29 1157.72C1035.64 703.442 1316.91 259.476 1397.94 737.57C1438.58 977.297 1377.71 1214.76 1286.09 1255.78C1239.17 1276.79 1191.75 1256.1 1144.85 1245.68C1105.43 1236.93 1028.34 1255.1 1049.97 1420.49C1061.73 1510.51 1093.09 1577.24 1125.15 1609.73C1305.21 1792.13 1383.13 951.321 1203.08 837.928C1173.05 819.025 1141.04 828.429 1114.14 870.006C1084.73 915.485 1061.85 998.531 1056.22 1089.77C1026.99 1562.87 1328.39 1774.98 1383.53 1307.93C1441.75 814.879 1182.15 450.449 1052.92 786.392C1027.6 852.218 1008.16 936.655 1002.11 1031.33C965.216 1608.59 1269.63 1925.68 1383.66 1429.54C1438.89 1189.21 1424.35 821.948 1344.81 635.533C1314.89 565.393 1275.66 514.028 1236.01 503.865C1223.55 500.674 1210.97 500.31 1198.48 502.038C1192.79 502.829 1187.11 504.524 1181.45 506.264C1178.63 507.135 1170.23 510.974 1172.99 509.078C1307.55 416.473 1419.28 632.806 1424.01 1011.19C1425.3 1114.37 1421.23 1213.97 1402.02 1304.69C1379.8 1409.66 1340.44 1488.85 1300.27 1536.7C1142.6 1724.62 1011.61 1403.94 979.561 996.416C968.638 857.523 967.836 711.65 996.224 586.363C1129.41 -1.39671 1543.24 775.925 1435.94 1382.84C1366.97 1772.9 1181.32 1771.39 1064.18 1559.31C906.334 1273.52 830.801 751.144 668.902 486.921C494.093 201.627 277.066 263.702 204.59 840.231C86.4333 1780.14 581.323 2272.82 739.788 1497.6C820.622 1102.16 729.596 492.718 593.927 274.973C480.887 93.552 311.164 210.107 253.28 538.469C138.71 1188.4 361.225 2519.21 643.101 1784.81C674.921 1701.9 704.334 1606.19 725.626 1500.95C757.958 1341.12 775.973 1157.26 783.961 976.709C815.493 263.954 565.25 210.723 367.158 325.45C269.108 382.236 172.97 454.995 143.104 746.91C127.904 895.478 135.681 1060.52 154.443 1203.87C216.038 1674.49 399.054 1961.33 580.414 1922.9C699.857 1897.56 829.013 1529.36 810.091 1193.07C781.745 689.272 515.525 46.2056 323.373 275.573C180.739 445.839 43.3198 1218.19 155.376 1597.93C221.864 1823.21 346.739 1793.59 435.628 1703.69C599.988 1537.46 784.284 1086.71 739.88 557.756C730.925 451.097 716.833 349.991 689.697 267.285C616.83 45.1941 493.637 91.5329 405.965 217.02C341.559 309.218 287.71 436.096 250.913 608.737C187.208 907.637 155.679 1689.83 286.75 1900.43C412.458 2102.41 640.899 1808.2 692.873 1457.84C774.912 904.794 603.717 208.751 393.018 130.963C256.898 80.7059 186.229 429.279 176.591 757.285C160.747 1296.5 243.233 1746.11 439.343 1910.09C498.303 1959.41 564.347 1972.75 621.607 1901.35C659.996 1853.46 694.634 1772.47 719.653 1680.57C978.936 727.911 352.564 189.396 188.496 668.913C156.026 763.818 140.231 893.183 138.476 1020.98C127.895 1791.54 563.11 2317.71 694.403 1479.42C834.063 587.746 330.239 -59.3343 183.488 832.355C165.468 941.841 155.67 1062.3 154.173 1182.13C143.604 2027.55 643.823 2048.56 723.97 1177.65C737.467 1031 740.283 874.192 714.737 735.391C686.91 584.204 634.004 476.645 575.034 428.715C314.394 216.892 46.0121 1179.1 287.032 1652.99C325.089 1727.83 370.444 1780.68 416.208 1808.33C580.752 1907.88 736.451 1511.4 754.898 1076.91C763.425 876.115 744.292 679.461 714.949 496.112C680.558 281.198 626.161 17.5867 528.979 4.67258C267.679 -30.0556 148.131 1289.32 225.822 1822.03C270.496 2128.34 432.821 2325.08 536.928 2105.46C592.152 1988.98 627.168 1790.24 642.254 1608.32C690.73 1023.68 602.518 542.463 396.637 306.735C282.322 175.85 86.8362 80.7578 84.21 582.237C81.1604 1164.79 271.662 1662.69 462.325 1832.34C584.951 1941.42 719.988 1934.05 790.182 1596.57C862.244 1250.13 795.396 783.897 676.916 583.576C615.021 478.928 540.929 438.559 468.655 443.24C368.746 449.713 239.684 584.364 226.234 894.311C204.587 1393.16 463.785 1743.68 618.197 1632.17C730.006 1551.42 786.991 1218.67 811.75 939.782C824.926 791.33 836.414 610.004 810.835 465.97C768.874 229.67 652.654 253.231 575.523 320.325C423.368 452.676 174.417 1009.71 288.811 1502.16C368.505 1845.25 590.67 1954.22 676.582 1570.7C693.634 1494.57 702.205 1392.16 695.08 1303.9C674.31 1046.64 565.614 955.555 480.458 949.537C381.036 942.517 292.88 1065.62 198.132 1125.74C131.198 1168.22 70.9897 1157.91 4 1135.41" stroke="url(#paint0_linear_328_3)" stroke-width="10" stroke-miterlimit="1.5" stroke-linecap="round" stroke-linejoin="round" stroke-dasharray="10 10"/>
<defs>
<linearGradient id="paint0_linear_328_3" x1="4" y1="1100.47" x2="2686.19" y2="1100.47" gradientUnits="userSpaceOnUse">
<stop stop-color="#2E2525"/>
<stop offset="1" stop-color="#3D342D"/>
</linearGradient>
</defs>
<style>
    @media (prefers-reduced-motion: no-preference) {
      .path {
        stroke-dasharray: 25;
        stroke-dashoffset: 1500;
        animation-name: dash;
        animation-fill-mode: forwards;
        animation-timing-function: linear;
        animation-duration: 20s;
        animation-iteration-count: infinite;
        animation-direction:reverse;
      }

      @keyframes dash {
        to {
          stroke-dashoffset: 0;
        }
      }
    }
  </style>
</svg>
